<?xml version="1.0" encoding="UTF-8"?><svg id="b" xmlns="http://www.w3.org/2000/svg" viewBox="0 0 42.04 42.04"><g id="c"><path id="d" d="M17.5,24.49c0,1.81-1.31,2.38-2.93,2.38h-4.23v-4.96h4.32c1.75,0,2.84,.73,2.84,2.58Zm-.72-7.72c0-1.66-1.29-2.06-2.71-2.06h-3.71v4.2h4.01c1.42,0,2.42-.62,2.42-2.15h0Zm12.42,2.18c-1.54-.1-2.87,1.08-2.97,2.62,0,.06,0,.11,0,.17h5.84c-.16-1.74-1.06-2.79-2.86-2.79Zm12.84-14.45V37.54c0,2.48-2.02,4.5-4.5,4.5H4.5c-2.48,0-4.5-2.02-4.5-4.5V4.5C0,2.02,2.02,0,4.5,0H37.54c2.49,0,4.5,2.01,4.5,4.5ZM25.5,14.36h7.3v-1.77h-7.3v1.77Zm-4.04,10.35c.18-2.19-1.19-4.2-3.28-4.84,1.61-.77,2.46-1.66,2.46-3.47,0-3.58-2.67-4.46-5.76-4.46H6.38V29.96H15.12c3.28-.02,6.35-1.59,6.35-5.25Zm14.2-1.39c0-3.86-2.26-7.08-6.34-7.08-3.62-.07-6.61,2.8-6.68,6.42,0,.16,0,.33,0,.49,0,4.06,2.56,6.85,6.67,6.85,2.84,.23,5.42-1.63,6.11-4.39h-3.16c-.51,1.09-1.63,1.76-2.83,1.7-2.1,0-3.2-1.23-3.2-3.31h9.4c0-.22,.03-.45,.03-.68h0Z" fill="#097ecc"/></g></svg>