<?xml version="1.0" encoding="UTF-8"?><svg id="b" xmlns="http://www.w3.org/2000/svg" viewBox="0 0 32 32"><g id="c"><g><rect x="0" y="0" width="32" height="32" rx="16" ry="16" fill="#061e3e"/><g id="d"><path id="e" d="M10.67,6.37c0,.28-.22,.5-.5,.5s-.5-.22-.5-.5,.22-.5,.5-.5c.28,0,.5,.22,.5,.5" fill="#097ecc"/><path id="f" d="M16.5,6.37c0,.28-.22,.5-.5,.5s-.5-.22-.5-.5,.22-.5,.5-.5c.28,0,.5,.22,.5,.5" fill="#097ecc"/><path id="g" d="M22.27,6.37c0,.28-.22,.5-.5,.5s-.5-.22-.5-.5,.22-.5,.5-.5c.28,0,.5,.22,.5,.5" fill="#097ecc"/><path id="h" d="M19.39,11.2c0,.28-.22,.5-.5,.5-.28,0-.5-.22-.5-.5s.22-.5,.5-.5h0c.28,0,.5,.22,.5,.5" fill="#097ecc"/><path id="i" d="M13.61,11.2c0,.28-.22,.5-.5,.5-.28,0-.5-.22-.5-.5s.22-.5,.5-.5h0c.28,0,.5,.22,.5,.5" fill="#097ecc"/><path id="j" d="M7.82,11.2c0,.28-.22,.5-.5,.5-.28,0-.5-.22-.5-.5s.22-.5,.5-.5h0c.28,0,.5,.22,.5,.5" fill="#097ecc"/><path id="k" d="M16.5,16c0,.28-.22,.5-.5,.5s-.5-.22-.5-.5,.22-.5,.5-.5h0c.28,0,.5,.22,.5,.5" fill="#097ecc"/><path id="l" d="M10.67,16c0,.28-.22,.5-.5,.5s-.5-.22-.5-.5,.22-.5,.5-.5h0c.28,0,.5,.22,.5,.5" fill="#097ecc"/><path id="m" d="M4.93,16c0,.28-.22,.5-.5,.5s-.5-.22-.5-.5,.22-.5,.5-.5h0c.28,0,.5,.22,.5,.5" fill="#097ecc"/><path id="n" d="M7.82,20.86c0,.28-.22,.5-.5,.5s-.5-.22-.5-.5,.22-.5,.5-.5h0c.28,0,.5,.22,.5,.5" fill="#097ecc"/><path id="o" d="M13.61,20.86c0,.28-.22,.5-.5,.5s-.5-.22-.5-.5,.22-.5,.5-.5h0c.28,0,.5,.22,.5,.5" fill="#097ecc"/><path id="p" d="M19.39,20.86c0,.28-.22,.5-.5,.5s-.5-.22-.5-.5,.22-.5,.5-.5h0c.28,0,.5,.22,.5,.5" fill="#097ecc"/><path id="q" d="M25.18,20.86c0,.28-.22,.5-.5,.5s-.5-.22-.5-.5,.22-.5,.5-.5h0c.28,0,.5,.22,.5,.5" fill="#097ecc"/><path id="r" d="M22.27,25.63c0,.28-.22,.5-.5,.5-.28,0-.5-.22-.5-.5s.22-.5,.5-.5c.28,0,.5,.22,.5,.5" fill="#097ecc"/><path id="s" d="M16.5,25.63c0,.28-.22,.5-.5,.5-.28,0-.5-.22-.5-.5s.22-.5,.5-.5c.28,0,.5,.22,.5,.5" fill="#097ecc"/><path id="t" d="M10.67,25.63c0,.28-.22,.5-.5,.5-.28,0-.5-.22-.5-.5s.22-.5,.5-.5c.28,0,.5,.22,.5,.5" fill="#097ecc"/><path id="u" d="M22.27,16c0,.28-.22,.5-.5,.5s-.5-.22-.5-.5,.22-.5,.5-.5h0c.28,0,.5,.22,.5,.5" fill="#097ecc"/><path id="v" d="M28.07,16c0,.28-.22,.5-.5,.5s-.5-.22-.5-.5,.22-.5,.5-.5h0c.28,0,.5,.22,.5,.5" fill="#097ecc"/><path id="w" d="M25.18,11.2c0,.28-.22,.5-.5,.5-.28,0-.5-.22-.5-.5s.22-.5,.5-.5h0c.28,0,.5,.22,.5,.5" fill="#097ecc"/><path id="x" d="M21.78,6.34H10.21l-5.79,9.66,5.79,9.66h11.57l5.78-9.66-5.78-9.66Z" fill="none" isolation="isolate" opacity=".8" stroke="#097ecc" stroke-miterlimit="10" stroke-width="2"/></g></g></g></svg>