<?xml version="1.0" encoding="UTF-8"?><svg id="b" xmlns="http://www.w3.org/2000/svg" viewBox="0 0 42.04 42.04"><g id="c"><path id="d" d="M39.04,0H2.99C1.33,.01,0,1.37,0,3.03V39.01c0,1.66,1.33,3.02,2.99,3.03H39.04c1.66-.01,3-1.37,3-3.03V3.03c0-1.66-1.34-3.02-3-3.03ZM12.71,36.04H6.48V15.97h6.24v20.07h-.01Zm-3.11-22.81c-2,0-3.62-1.61-3.62-3.61,0-2,1.61-3.62,3.61-3.62,2,0,3.62,1.61,3.62,3.61h0c0,2-1.62,3.61-3.61,3.62Zm26.48,22.81h-6.23v-9.76c0-2.33-.05-5.32-3.24-5.32s-3.74,2.53-3.74,5.15v9.93h-6.23V15.97h5.98v2.74h.08c1.22-2.08,3.49-3.33,5.9-3.24,6.31,0,7.48,4.16,7.48,9.56v11Z" fill="#097ecc"/></g></svg>