<?xml version="1.0" encoding="UTF-8"?><svg id="b" xmlns="http://www.w3.org/2000/svg" viewBox="0 0 200.11 42.7"><g id="c"><g id="d"><g id="e"><path id="f" d="M163.58,1.32c0,.58-.47,1.05-1.05,1.05s-1.05-.47-1.05-1.05,.47-1.05,1.05-1.05c.58,0,1.05,.47,1.05,1.05" fill="#097ecc"/><path id="g" d="M175.79,1.32c0,.58-.47,1.05-1.05,1.05s-1.05-.47-1.05-1.05,.47-1.05,1.05-1.05c.58,0,1.05,.47,1.05,1.05" fill="#097ecc"/><path id="h" d="M187.86,1.32c0,.58-.47,1.05-1.05,1.05s-1.05-.47-1.05-1.05,.47-1.05,1.05-1.05c.58,0,1.05,.47,1.05,1.05" fill="#097ecc"/><path id="i" d="M181.84,11.43c0,.58-.47,1.05-1.05,1.05-.58,0-1.05-.47-1.05-1.05s.47-1.05,1.05-1.05h0c.58,0,1.05,.47,1.05,1.05" fill="#097ecc"/><path id="j" d="M169.74,11.43c0,.58-.47,1.05-1.05,1.05-.58,0-1.05-.47-1.05-1.05s.47-1.05,1.05-1.05h0c.58,0,1.05,.47,1.05,1.05" fill="#097ecc"/><path id="k" d="M157.63,11.43c0,.58-.47,1.05-1.05,1.05-.58,0-1.05-.47-1.05-1.05s.47-1.05,1.05-1.05h0c.58,0,1.05,.47,1.05,1.05" fill="#097ecc"/><path id="l" d="M175.79,21.48c0,.58-.47,1.05-1.05,1.05s-1.05-.47-1.05-1.05,.47-1.05,1.05-1.05h0c.58,0,1.05,.47,1.05,1.05" fill="#097ecc"/><path id="m" d="M163.58,21.48c0,.58-.47,1.05-1.05,1.05s-1.05-.47-1.05-1.05,.47-1.05,1.05-1.05h0c.58,0,1.05,.47,1.05,1.05" fill="#097ecc"/><path id="n" d="M151.58,21.48c0,.58-.47,1.05-1.05,1.05s-1.05-.47-1.05-1.05,.47-1.05,1.05-1.05h0c.58,0,1.05,.47,1.05,1.05" fill="#097ecc"/><path id="o" d="M157.63,31.64c0,.58-.47,1.05-1.05,1.05s-1.05-.47-1.05-1.05,.47-1.05,1.05-1.05h0c.58,0,1.05,.47,1.05,1.05" fill="#097ecc"/><path id="p" d="M169.74,31.64c0,.58-.47,1.05-1.05,1.05s-1.05-.47-1.05-1.05,.47-1.05,1.05-1.05h0c.58,0,1.05,.47,1.05,1.05" fill="#097ecc"/><path id="q" d="M181.84,31.64c0,.58-.47,1.05-1.05,1.05s-1.05-.47-1.05-1.05,.47-1.05,1.05-1.05h0c.58,0,1.05,.47,1.05,1.05" fill="#097ecc"/><path id="r" d="M193.95,31.64c0,.58-.47,1.05-1.05,1.05s-1.05-.47-1.05-1.05,.47-1.05,1.05-1.05h0c.58,0,1.05,.47,1.05,1.05" fill="#097ecc"/><path id="s" d="M187.86,41.63c0,.58-.47,1.05-1.05,1.05-.58,0-1.05-.47-1.05-1.05s.47-1.05,1.05-1.05c.58,0,1.05,.47,1.05,1.05" fill="#097ecc"/><path id="t" d="M175.79,41.63c0,.58-.47,1.05-1.05,1.05-.58,0-1.05-.47-1.05-1.05s.47-1.05,1.05-1.05c.58,0,1.05,.47,1.05,1.05" fill="#097ecc"/><path id="u" d="M163.58,41.63c0,.58-.47,1.05-1.05,1.05-.58,0-1.05-.47-1.05-1.05s.47-1.05,1.05-1.05c.58,0,1.05,.47,1.05,1.05" fill="#097ecc"/><path id="v" d="M187.86,21.48c0,.58-.47,1.05-1.05,1.05s-1.05-.47-1.05-1.05,.47-1.05,1.05-1.05h0c.58,0,1.05,.47,1.05,1.05" fill="#097ecc"/><path id="w" d="M200,21.48c0,.58-.47,1.05-1.05,1.05s-1.05-.47-1.05-1.05,.47-1.05,1.05-1.05h0c.58,0,1.05,.47,1.05,1.05" fill="#097ecc"/><path id="x" d="M193.95,11.43c0,.58-.47,1.05-1.05,1.05-.58,0-1.05-.47-1.05-1.05s.47-1.05,1.05-1.05h0c.58,0,1.05,.47,1.05,1.05" fill="#097ecc"/><path id="y" d="M186.85,1.27h-24.21l-12.11,20.22,12.11,20.22h24.21l12.1-20.22L186.85,1.27Z" fill="none" isolation="isolate" opacity=".4" stroke="#097ecc" stroke-miterlimit="10" stroke-width="2"/></g><g id="z" ><path id="aa" d="M26.31,1.32c0,.58-.47,1.05-1.05,1.05s-1.05-.47-1.05-1.05c0-.58,.47-1.05,1.05-1.05,.58,0,1.05,.47,1.05,1.05" fill="#097ecc"/><path id="ab" d="M32.36,11.43c0,.58-.47,1.05-1.05,1.05-.58,0-1.05-.47-1.05-1.05s.47-1.05,1.05-1.05c.58,0,1.05,.47,1.05,1.05" fill="#097ecc"/><path id="ac" d="M20.26,11.43c0,.58-.47,1.05-1.05,1.05-.58,0-1.05-.47-1.05-1.05s.47-1.05,1.05-1.05c.58,0,1.05,.47,1.05,1.05" fill="#097ecc"/><path id="ad" d="M26.31,21.48c0,.58-.47,1.05-1.05,1.05s-1.05-.47-1.05-1.05,.47-1.05,1.05-1.05c.58,0,1.05,.47,1.05,1.05" fill="#097ecc"/><path id="ae" d="M14.1,21.48c0,.58-.47,1.05-1.05,1.05s-1.05-.47-1.05-1.05c0-.58,.47-1.05,1.05-1.05,.58,0,1.05,.47,1.05,1.05" fill="#097ecc"/><path id="af" d="M50.52,41.63c0,.58-.47,1.05-1.05,1.05-.58,0-1.05-.47-1.05-1.05,0-.58,.47-1.05,1.05-1.05,.58,0,1.05,.47,1.05,1.05" fill="#097ecc"/><path id="ag" d="M2.1,41.63c0,.58-.47,1.05-1.05,1.05C.47,42.68,0,42.21,0,41.63c0-.58,.47-1.05,1.05-1.05,.58,0,1.05,.47,1.05,1.05" fill="#097ecc"/><path id="ah" d="M8.15,31.64c0,.58-.47,1.05-1.05,1.05-.58,0-1.05-.47-1.05-1.05,0-.58,.47-1.05,1.05-1.05,.58,0,1.05,.47,1.05,1.05" fill="#097ecc"/><path id="ai" d="M20.26,31.64c0,.58-.47,1.05-1.05,1.05s-1.05-.47-1.05-1.05,.47-1.05,1.05-1.05c.58,0,1.05,.47,1.05,1.05" fill="#097ecc"/><path id="aj" d="M32.36,31.64c0,.58-.47,1.05-1.05,1.05s-1.05-.47-1.05-1.05,.47-1.05,1.05-1.05c.58,0,1.05,.47,1.05,1.05" fill="#097ecc"/><path id="ak" d="M44.47,31.64c0,.58-.47,1.05-1.05,1.05s-1.05-.47-1.05-1.05,.47-1.05,1.05-1.05c.58,0,1.05,.47,1.05,1.05" fill="#097ecc"/><path id="al" d="M38.38,41.63c0,.58-.47,1.05-1.05,1.05-.58,0-1.05-.47-1.05-1.05,0-.58,.47-1.05,1.05-1.05,.58,0,1.05,.47,1.05,1.05" fill="#097ecc"/><path id="am" d="M26.31,41.63c0,.58-.47,1.05-1.05,1.05-.58,0-1.05-.47-1.05-1.05,0-.58,.47-1.05,1.05-1.05,.58,0,1.05,.47,1.05,1.05" fill="#097ecc"/><path id="an" d="M14.1,41.63c0,.58-.47,1.05-1.05,1.05-.58,0-1.05-.47-1.05-1.05,0-.58,.47-1.05,1.05-1.05,.58,0,1.05,.47,1.05,1.05" fill="#097ecc"/><path id="ao" d="M38.38,21.48c0,.58-.47,1.05-1.05,1.05s-1.05-.47-1.05-1.05,.47-1.05,1.05-1.05c.58,0,1.05,.47,1.05,1.05" fill="#097ecc"/><path id="ap" d="M25.15,1L1.04,41.64H49.27L25.15,1Z" fill="none" isolation="isolate" opacity=".4" stroke="#097ecc" stroke-linejoin="round" stroke-width="2"/></g><g id="aq"><path id="ar" d="M88.84,1.32c0,.58-.47,1.05-1.05,1.05s-1.05-.47-1.05-1.05,.47-1.05,1.05-1.05c.58,0,1.05,.47,1.05,1.05" fill="#097ecc"/><path id="as" d="M101.05,1.32c0,.58-.47,1.05-1.05,1.05-.58,0-1.05-.47-1.05-1.05s.47-1.05,1.05-1.05h0c.58,0,1.05,.47,1.05,1.05" fill="#097ecc"/><path id="at" d="M113.12,1.32c0,.58-.47,1.05-1.05,1.05s-1.05-.47-1.05-1.05,.47-1.05,1.05-1.05h0c.58,0,1.05,.47,1.05,1.05" fill="#097ecc"/><path id="au" d="M107.1,11.43c0,.58-.47,1.05-1.05,1.05-.58,0-1.05-.47-1.05-1.05s.47-1.05,1.05-1.05c.58,0,1.05,.47,1.05,1.05" fill="#097ecc"/><path id="av" d="M94.99,11.43c0,.58-.47,1.05-1.05,1.05-.58,0-1.05-.47-1.05-1.05s.47-1.05,1.05-1.05c.58,0,1.05,.47,1.05,1.05" fill="#097ecc"/><path id="aw" d="M82.89,11.43c0,.58-.47,1.05-1.05,1.05-.58,0-1.05-.47-1.05-1.05s.47-1.05,1.05-1.05c.58,0,1.05,.47,1.05,1.05" fill="#097ecc"/><path id="ax" d="M101.05,21.48c0,.58-.47,1.05-1.05,1.05-.58,0-1.05-.47-1.05-1.05,0-.58,.47-1.05,1.05-1.05h0c.58,0,1.05,.47,1.05,1.05" fill="#097ecc"/><path id="ay" d="M88.84,21.48c0,.58-.47,1.05-1.05,1.05s-1.05-.47-1.05-1.05,.47-1.05,1.05-1.05c.58,0,1.05,.47,1.05,1.05" fill="#097ecc"/><path id="az" d="M76.84,21.48c0,.58-.47,1.05-1.05,1.05s-1.05-.47-1.05-1.05,.47-1.05,1.05-1.05c.58,0,1.05,.47,1.05,1.05" fill="#097ecc"/><path id="ba" d="M76.84,1.32c0,.58-.47,1.05-1.05,1.05-.58,0-1.05-.47-1.05-1.05s.47-1.05,1.05-1.05c.58,0,1.05,.47,1.05,1.05h0" fill="#097ecc"/><path id="bb" d="M125.26,1.32c0,.58-.47,1.05-1.05,1.05s-1.05-.47-1.05-1.05,.47-1.05,1.05-1.05c.58,0,1.05,.47,1.05,1.05" fill="#097ecc"/><path id="bc" d="M125.26,41.63c0,.58-.47,1.05-1.05,1.05-.58,0-1.05-.47-1.05-1.05s.47-1.05,1.05-1.05c.58,0,1.05,.47,1.05,1.05" fill="#097ecc"/><path id="bd" d="M76.84,41.63c0,.58-.47,1.05-1.05,1.05-.58,0-1.05-.47-1.05-1.05,0-.58,.47-1.05,1.05-1.05,.58,0,1.05,.47,1.05,1.05h0" fill="#097ecc"/><path id="be" d="M82.89,31.64c0,.58-.47,1.05-1.05,1.05s-1.05-.47-1.05-1.05,.47-1.05,1.05-1.05c.58,0,1.05,.47,1.05,1.05" fill="#097ecc"/><path id="bf" d="M94.99,31.64c0,.58-.47,1.05-1.05,1.05s-1.05-.47-1.05-1.05,.47-1.05,1.05-1.05c.58,0,1.05,.47,1.05,1.05" fill="#097ecc"/><path id="bg" d="M107.1,31.64c0,.58-.47,1.05-1.05,1.05s-1.05-.47-1.05-1.05,.47-1.05,1.05-1.05c.58,0,1.05,.47,1.05,1.05" fill="#097ecc"/><path id="bh" d="M119.21,31.64c0,.58-.47,1.05-1.05,1.05s-1.05-.47-1.05-1.05,.47-1.05,1.05-1.05c.58,0,1.05,.47,1.05,1.05" fill="#097ecc"/><path id="bi" d="M113.12,41.63c0,.58-.47,1.05-1.05,1.05-.58,0-1.05-.47-1.05-1.05s.47-1.05,1.05-1.05h0c.58,0,1.05,.47,1.05,1.05" fill="#097ecc"/><path id="bj" d="M101.05,41.63c0,.58-.47,1.05-1.05,1.05-.58,0-1.05-.47-1.05-1.05,0-.58,.47-1.05,1.05-1.05h0c.58,0,1.05,.47,1.05,1.05" fill="#097ecc"/><path id="bk" d="M88.84,41.63c0,.58-.47,1.05-1.05,1.05-.58,0-1.05-.47-1.05-1.05s.47-1.05,1.05-1.05c.58,0,1.05,.47,1.05,1.05" fill="#097ecc"/><path id="bl" d="M113.12,21.48c0,.58-.47,1.05-1.05,1.05s-1.05-.47-1.05-1.05,.47-1.05,1.05-1.05c.58,0,1.05,.47,1.05,1.05" fill="#097ecc"/><path id="bm" d="M125.26,21.48c0,.58-.47,1.05-1.05,1.05s-1.05-.47-1.05-1.05,.47-1.05,1.05-1.05c.58,0,1.05,.47,1.05,1.05" fill="#097ecc"/><path id="bn" d="M119.21,11.43c0,.58-.47,1.05-1.05,1.05-.58,0-1.05-.47-1.05-1.05s.47-1.05,1.05-1.05c.58,0,1.05,.47,1.05,1.05" fill="#097ecc"/><rect id="bo" x="75.79" y="1.27" width="48.42" height="40.43" fill="none" isolation="isolate" opacity=".4" stroke="#097ecc" stroke-miterlimit="10" stroke-width="2"/></g></g></g></svg>