<?xml version="1.0" encoding="UTF-8"?><svg id="b" xmlns="http://www.w3.org/2000/svg" viewBox="0 0 896.86 318.01"><g id="c"><g id="d"><g id="e" isolation="isolate"><g isolation="isolate"><g><path d="M1.04,293.87H7.3v3.23h-2.69v7.17h2.69v3.23h-2.69v10.17H1.04v-23.8Z" fill="#097ecc"/><path d="M48.95,293.87h4.49c2.41,0,4.49,1.53,4.49,3.71v7c0,1.29-.75,2.35-1.83,3.03l1.83,6.08v3.98h-2.55l-2.55-9.38h-.31v9.38h-3.57v-23.8Zm4.49,11.19c.44,0,.92-.24,.92-.71v-6.53c0-.48-.48-.71-.92-.71h-.92v7.96h.92Z" fill="#097ecc"/><path d="M99.57,297.24c0-2.18,2.07-3.71,4.49-3.71s4.49,1.53,4.49,3.71v17.07c0,2.18-2.07,3.71-4.49,3.71s-4.49-1.53-4.49-3.71v-17.07Zm4.49-.48c-.44,0-.92,.24-.92,.71v16.59c0,.48,.48,.71,.92,.71s.92-.24,.92-.71v-16.59c0-.48-.48-.71-.92-.71Z" fill="#097ecc"/><path d="M150.37,293.87h3.67l1.94,12.04,.03-12.04h3.33v23.8h-3.71l-1.94-11.97v11.97h-3.33v-23.8Z" fill="#097ecc"/><path d="M203.17,297.27h-2.35v-3.4h8.29v3.4h-2.38v20.4h-3.57v-20.4Z" fill="#097ecc"/><path d="M249.24,305.4h6.25v3.06h-6.25v-3.06Z" fill="#097ecc"/><path d="M297.31,293.87h6.26v3.23h-2.69v6.94h2.69v3.23h-2.69v7.17h2.69v3.23h-6.26v-23.8Z" fill="#097ecc"/><path d="M345.22,293.87h3.67l1.94,12.04,.03-12.04h3.33v23.8h-3.71l-1.94-11.97v11.97h-3.33v-23.8Z" fill="#097ecc"/><path d="M396.02,293.87h4.49c2.41,0,4.49,1.7,4.49,3.88v16.05c0,2.18-2.07,3.88-4.49,3.88h-4.49v-23.8Zm4.49,20.57c.44,0,.92-.27,.92-.88v-15.57c0-.61-.48-.88-.92-.88h-.92v17.34h.92Z" fill="#097ecc"/><path d="M492.81,293.87h4.49c2.41,0,4.49,1.7,4.49,3.88v16.05c0,2.18-2.07,3.88-4.49,3.88h-4.49v-23.8Zm4.49,20.57c.44,0,.92-.27,.92-.88v-15.57c0-.61-.48-.88-.92-.88h-.92v17.34h.92Z" fill="#097ecc"/><path d="M543.61,293.87h6.25v3.23h-2.69v6.94h2.69v3.23h-2.69v7.17h2.69v3.23h-6.25v-23.8Z" fill="#097ecc"/><path d="M591.34,300.77v-6.9h2.75l1.97,19.82,1.97-19.82h2.72v6.9l-2.18,16.9h-5.03l-2.21-16.9Z" fill="#097ecc"/><path d="M642.41,293.87h6.26v3.23h-2.69v6.94h2.69v3.23h-2.69v7.17h2.69v3.23h-6.26v-23.8Z" fill="#097ecc"/><path d="M690.32,293.87h3.57v20.57h2.69v3.23h-6.26v-23.8Z" fill="#097ecc"/><path d="M738.05,297.24c0-2.18,2.07-3.71,4.49-3.71s4.49,1.53,4.49,3.71v17.07c0,2.18-2.07,3.71-4.49,3.71s-4.49-1.53-4.49-3.71v-17.07Zm4.49-.48c-.44,0-.92,.24-.92,.71v16.59c0,.48,.48,.71,.92,.71s.92-.24,.92-.71v-16.59c0-.48-.48-.71-.92-.71Z" fill="#097ecc"/><path d="M788.85,293.87h4.49c2.41,0,4.49,1.53,4.49,3.71v7c0,2.18-2.07,3.71-4.49,3.71h-.92v9.38h-3.57v-23.8Zm4.49,11.19c.44,0,.92-.24,.92-.71v-6.53c0-.48-.48-.71-.92-.71h-.92v7.96h.92Z" fill="#097ecc"/><path d="M839.48,293.87h6.26v3.23h-2.69v6.94h2.69v3.23h-2.69v7.17h2.69v3.23h-6.26v-23.8Z" fill="#097ecc"/><path d="M887.38,293.87h4.49c2.41,0,4.49,1.53,4.49,3.71v7c0,1.29-.75,2.35-1.84,3.03l1.84,6.08v3.98h-2.55l-2.55-9.38h-.31v9.38h-3.57v-23.8Zm4.49,11.19c.44,0,.92-.24,.92-.71v-6.53c0-.48-.48-.71-.92-.71h-.92v7.96h.92Z" fill="#097ecc"/></g></g></g><g id="f" isolation="isolate"><g isolation="isolate"><g><path d="M14.7,49.01H0V3.77H76.91V49.01h-15.08v218.66H14.7V49.01Z" fill="#097ecc"/><path d="M82.18,3.77h47.12V267.67h-47.12V3.77Z" fill="#097ecc"/><path d="M209.23,136.47l-14.7,134.96-14.7-134.96v131.2h-45.24V3.77h53.16l6.79,100.28L201.31,3.77h53.16V267.67h-45.24V136.47Z" fill="#097ecc"/><path d="M309.12,230.35v-70.5h47.12v66.35c0,1.13,.75,1.88,2.64,1.88s2.64-.75,2.64-1.88v-69.75c0-1.13-.75-1.88-1.89-1.88h-8.29c-30.54,0-42.22-16.96-42.22-41.09V41.09c0-24.13,19.23-41.09,49.76-41.09s49.76,16.96,49.76,41.09V105.94h-47.12V45.24c0-1.13-.75-1.88-2.64-1.88s-2.64,.75-2.64,1.88V109.33c0,1.13,.75,1.89,1.88,1.89h8.29c30.54,0,42.22,16.96,42.22,41.09v78.04c0,24.13-19.23,41.09-49.76,41.09s-49.76-16.96-49.76-41.09Z" fill="#097ecc"/><path d="M413.17,3.77h49.76c30.54,0,49.76,16.96,49.76,41.09v96.51c0,24.13-19.23,41.09-49.76,41.09h-2.64v85.2h-47.12V3.77Zm49.76,135.34c1.88,0,2.64-.75,2.64-1.88V49.01c0-1.13-.75-1.88-2.64-1.88h-2.64v91.99h2.64Z" fill="#097ecc"/><path d="M517.98,3.77h65.6V47.12h-18.47V112.72h18.47v43.35h-18.47v68.24h18.47v43.35h-65.6V3.77Z" fill="#097ecc"/><path d="M588.85,191.14L602.04,3.77h72.38l12.82,187.37v76.53h-43.73l-1.13-43.73h-8.29l-1.13,43.73h-44.11v-76.53Zm52.4-10.56l-3.02-113.85-3.02,113.85h6.03Z" fill="#097ecc"/><path d="M692.52,3.77h49.76c30.54,0,49.76,16.96,49.76,41.09v85.2c0,10.18-3.39,18.85-9.42,25.64l9.42,60.32v51.65h-38.45l-13.95-94.63v94.63h-47.12V3.77Zm49.76,124.03c1.88,0,2.64-.75,2.64-1.89V49.01c0-1.13-.75-1.88-2.64-1.88h-2.64V127.8h2.64Z" fill="#097ecc"/><path d="M797.33,230.35v-70.5h47.12v66.35c0,1.13,.75,1.88,2.64,1.88s2.64-.75,2.64-1.88v-69.75c0-1.13-.75-1.88-1.88-1.88h-8.29c-30.54,0-42.22-16.96-42.22-41.09V41.09c0-24.13,19.23-41.09,49.76-41.09s49.76,16.96,49.76,41.09V105.94h-47.12V45.24c0-1.13-.75-1.88-2.64-1.88s-2.64,.75-2.64,1.88V109.33c0,1.13,.75,1.89,1.88,1.89h8.29c30.54,0,42.22,16.96,42.22,41.09v78.04c0,24.13-19.23,41.09-49.76,41.09s-49.76-16.96-49.76-41.09Z" fill="#097ecc"/></g></g></g></g></g></svg>