<?xml version="1.0" encoding="UTF-8"?><svg id="b" xmlns="http://www.w3.org/2000/svg" viewBox="0 0 332.06 378.44"><g id="c"><g><g id="d" isolation="isolate"><g isolation="isolate"><path d="M8.31,25.56H0V0H43.45V25.56h-8.52v123.54H8.31V25.56Z" fill="#097ecc"/><path d="M46.43,0h26.62V149.1h-26.62V0Z" fill="#097ecc"/><path d="M118.21,74.98l-8.31,76.25-8.31-76.25v74.12h-25.56V0h30.03l3.83,56.66L113.74,0h30.03V149.1h-25.56V74.98Z" fill="#097ecc"/></g><g isolation="isolate"><path d="M0,281.01v-39.83H26.62v37.49c0,.64,.43,1.07,1.49,1.07s1.49-.43,1.49-1.07v-39.4c0-.64-.43-1.07-1.06-1.07h-4.69c-17.25,0-23.86-9.58-23.86-23.22v-40.9c0-13.63,10.86-23.22,28.12-23.22s28.12,9.58,28.12,23.22v36.64H29.61v-34.29c0-.64-.43-1.06-1.49-1.06s-1.49,.43-1.49,1.06v36.21c0,.64,.43,1.07,1.06,1.07h4.69c17.25,0,23.86,9.58,23.86,23.22v44.09c0,13.63-10.86,23.22-28.12,23.22S0,294.64,0,281.01Z" fill="#097ecc"/><path d="M58.79,153h28.12c17.25,0,28.12,9.58,28.12,23.22v54.53c0,13.63-10.86,23.22-28.12,23.22h-1.49v48.14h-26.62V153Zm28.12,76.47c1.07,0,1.49-.43,1.49-1.07v-49.84c0-.64-.43-1.07-1.49-1.07h-1.49v51.97h1.49Z" fill="#097ecc"/><path d="M118,153h37.06v24.5h-10.44v37.06h10.44v24.5h-10.44v38.55h10.44v24.5h-37.06V153Z" fill="#097ecc"/><path d="M158.04,258.86l7.45-105.86h40.9l7.24,105.86v43.24h-24.71l-.64-24.71h-4.69l-.64,24.71h-24.92v-43.24Zm29.61-5.96l-1.7-64.33-1.7,64.33h3.41Z" fill="#097ecc"/><path d="M216.61,153h28.12c17.25,0,28.12,9.58,28.12,23.22v48.14c0,5.75-1.92,10.65-5.33,14.48l5.33,34.08v29.18h-21.73l-7.88-53.46v53.46h-26.62V153Zm28.12,70.08c1.07,0,1.49-.43,1.49-1.06v-43.45c0-.64-.43-1.07-1.49-1.07h-1.49v45.58h1.49Z" fill="#097ecc"/><path d="M275.83,281.01v-39.83h26.62v37.49c0,.64,.43,1.07,1.49,1.07s1.49-.43,1.49-1.07v-39.4c0-.64-.43-1.07-1.06-1.07h-4.69c-17.25,0-23.86-9.58-23.86-23.22v-40.9c0-13.63,10.86-23.22,28.12-23.22s28.12,9.58,28.12,23.22v36.64h-26.62v-34.29c0-.64-.43-1.06-1.49-1.06s-1.49,.43-1.49,1.06v36.21c0,.64,.43,1.07,1.06,1.07h4.69c17.25,0,23.86,9.58,23.86,23.22v44.09c0,13.63-10.86,23.22-28.12,23.22s-28.12-9.58-28.12-23.22Z" fill="#097ecc"/></g></g><g id="e" isolation="isolate"><g isolation="isolate"><path d="M1.19,320.3H7.44v3.23h-2.69v7.17h2.69v3.23h-2.69v10.17H1.19v-23.8Z" fill="#097ecc"/><path d="M39.57,320.3h4.49c2.41,0,4.49,1.53,4.49,3.71v7c0,1.29-.75,2.35-1.84,3.03l1.84,6.08v3.98h-2.55l-2.55-9.38h-.31v9.38h-3.57v-23.8Zm4.49,11.19c.44,0,.92-.24,.92-.71v-6.53c0-.48-.48-.71-.92-.71h-.92v7.96h.92Z" fill="#097ecc"/><path d="M80.68,323.67c0-2.18,2.07-3.71,4.49-3.71s4.49,1.53,4.49,3.71v17.07c0,2.18-2.07,3.71-4.49,3.71s-4.49-1.53-4.49-3.71v-17.07Zm4.49-.48c-.44,0-.92,.24-.92,.71v16.59c0,.48,.48,.71,.92,.71s.92-.24,.92-.71v-16.59c0-.48-.48-.71-.92-.71Z" fill="#097ecc"/><path d="M121.96,320.3h3.67l1.94,12.04,.03-12.04h3.33v23.8h-3.71l-1.94-11.97v11.97h-3.33v-23.8Z" fill="#097ecc"/><path d="M165.24,323.7h-2.35v-3.4h8.29v3.4h-2.38v20.4h-3.57v-20.4Z" fill="#097ecc"/><path d="M201.79,331.83h6.26v3.06h-6.26v-3.06Z" fill="#097ecc"/><path d="M240.34,320.3h6.25v3.23h-2.69v6.94h2.69v3.23h-2.69v7.17h2.69v3.23h-6.25v-23.8Z" fill="#097ecc"/><path d="M278.73,320.3h3.67l1.94,12.04,.03-12.04h3.33v23.8h-3.71l-1.94-11.97v11.97h-3.33v-23.8Z" fill="#097ecc"/><path d="M320,320.3h4.49c2.41,0,4.49,1.7,4.49,3.88v16.05c0,2.18-2.07,3.88-4.49,3.88h-4.49v-23.8Zm4.49,20.57c.44,0,.92-.27,.92-.88v-15.57c0-.61-.48-.88-.92-.88h-.92v17.34h.92Z" fill="#097ecc"/></g><g isolation="isolate"><path d="M1.19,354.3H5.68c2.41,0,4.49,1.7,4.49,3.88v16.05c0,2.18-2.07,3.88-4.49,3.88H1.19v-23.8Zm4.49,20.57c.44,0,.92-.27,.92-.88v-15.57c0-.61-.48-.88-.92-.88h-.92v17.34h.92Z" fill="#097ecc"/><path d="M42.46,354.3h6.26v3.23h-2.69v6.94h2.69v3.23h-2.69v7.17h2.69v3.23h-6.26v-23.8Z" fill="#097ecc"/><path d="M80.68,361.2v-6.9h2.75l1.97,19.82,1.97-19.82h2.72v6.9l-2.18,16.9h-5.03l-2.21-16.9Z" fill="#097ecc"/><path d="M122.23,354.3h6.26v3.23h-2.69v6.94h2.69v3.23h-2.69v7.17h2.69v3.23h-6.26v-23.8Z" fill="#097ecc"/><path d="M160.61,354.3h3.57v20.57h2.69v3.23h-6.26v-23.8Z" fill="#097ecc"/><path d="M198.83,357.67c0-2.18,2.07-3.71,4.49-3.71s4.49,1.53,4.49,3.71v17.07c0,2.18-2.07,3.71-4.49,3.71s-4.49-1.53-4.49-3.71v-17.07Zm4.49-.48c-.44,0-.92,.24-.92,.71v16.59c0,.48,.48,.71,.92,.71s.92-.24,.92-.71v-16.59c0-.48-.48-.71-.92-.71Z" fill="#097ecc"/><path d="M240.1,354.3h4.49c2.41,0,4.49,1.53,4.49,3.71v7c0,2.18-2.07,3.71-4.49,3.71h-.92v9.38h-3.57v-23.8Zm4.49,11.19c.44,0,.92-.24,.92-.71v-6.53c0-.48-.48-.71-.92-.71h-.92v7.96h.92Z" fill="#097ecc"/><path d="M281.21,354.3h6.25v3.23h-2.69v6.94h2.69v3.23h-2.69v7.17h2.69v3.23h-6.25v-23.8Z" fill="#097ecc"/><path d="M319.6,354.3h4.49c2.41,0,4.49,1.53,4.49,3.71v7c0,1.29-.75,2.35-1.83,3.03l1.83,6.08v3.98h-2.55l-2.55-9.38h-.31v9.38h-3.57v-23.8Zm4.49,11.19c.44,0,.92-.24,.92-.71v-6.53c0-.48-.48-.71-.92-.71h-.92v7.96h.92Z" fill="#097ecc"/></g></g></g></g></svg>